<mxfile host="app.diagrams.net" modified="2022-03-15T06:17:55.045Z" agent="5.0 (X11; Linux x86_64) AppleWebKit/537.36 (KHTML, like Gecko) Chrome/95.0.4638.54 Safari/537.36 Edg/95.0.1020.30" etag="oASSMVP5DRXEndyLAYrs" version="17.1.2" type="github">
  <diagram id="gPcZcegDupLcSj5IRky2" name="Page-1">
    <mxGraphModel dx="1422" dy="800" grid="1" gridSize="10" guides="1" tooltips="1" connect="1" arrows="1" fold="1" page="1" pageScale="1" pageWidth="850" pageHeight="1100" math="0" shadow="0">
      <root>
        <mxCell id="0" />
        <mxCell id="1" parent="0" />
        <mxCell id="ShP7ms8K1GOIWVJ55orw-16" value="" style="rounded=1;whiteSpace=wrap;html=1;" vertex="1" parent="1">
          <mxGeometry x="240" y="450" width="240" height="200" as="geometry" />
        </mxCell>
        <mxCell id="ShP7ms8K1GOIWVJ55orw-17" value="" style="rounded=0;whiteSpace=wrap;html=1;" vertex="1" parent="1">
          <mxGeometry x="240" y="450" width="240" height="60" as="geometry" />
        </mxCell>
        <mxCell id="ShP7ms8K1GOIWVJ55orw-19" value="&lt;b&gt;&lt;font style=&quot;font-size: 25px&quot;&gt;K/v&lt;/font&gt;&lt;/b&gt;" style="text;html=1;strokeColor=none;fillColor=none;align=center;verticalAlign=middle;whiteSpace=wrap;rounded=0;" vertex="1" parent="1">
          <mxGeometry x="275" y="445" width="170" height="70" as="geometry" />
        </mxCell>
        <mxCell id="ShP7ms8K1GOIWVJ55orw-20" value="&lt;span style=&quot;font-size: 25px&quot;&gt;&lt;b&gt;Raft&lt;/b&gt;&lt;/span&gt;" style="text;html=1;strokeColor=none;fillColor=none;align=center;verticalAlign=middle;whiteSpace=wrap;rounded=0;" vertex="1" parent="1">
          <mxGeometry x="275" y="540" width="170" height="70" as="geometry" />
        </mxCell>
      </root>
    </mxGraphModel>
  </diagram>
</mxfile>
